<?xml version="1.0" encoding="UTF-8"?>
<svg id="Layer_1" data-name="Layer 1" xmlns="http://www.w3.org/2000/svg" viewBox="0 0 1112.63 332.91">
  <defs>
    <style>
      .cls-1 {
        fill: #fff;
      }
    </style>
  </defs>
  <path class="cls-1" d="M942.27,57.07h124.12c7.71,7.71,15.4,15.4,23.18,23.18V222.04c-7.42,7.42-14.93,14.93-22.43,22.43h-124.87V57.07Zm119.98,152.26V93.1c-2.81-2.85-5.33-5.39-7.83-7.93h-84.72c-.58,17.57-.34,127.76,.26,131.08h85.34c2.41-2.4,4.69-4.67,6.96-6.93Z"/>
  <path class="cls-1" d="M321.07,193.99V57.82h27.2V244.19c-2.82,.5-19.47,.64-27.89,.21-30.5-45.39-61.02-90.82-91.54-136.24-.18,.1-.29,.14-.35,.21-.07,.08-.16,.2-.16,.3,0,45.2,0,90.4,0,135.75h-27.06c-.58-3.07-.83-173.02-.24-186.54h27.76c1.76,2.47,3.64,5.01,5.41,7.62,3.53,5.2,7,10.44,10.49,15.66,3.69,5.51,7.37,11.03,11.06,16.54,2.85,4.26,5.71,8.51,8.6,12.74,3.74,5.5,7.54,10.95,11.26,16.47,3.45,5.11,6.79,10.29,10.24,15.4,3.72,5.51,7.53,10.96,11.25,16.47,3.52,5.2,7,10.44,10.49,15.67,3.74,5.61,7.44,11.25,11.19,16.86,.51,.77,1.21,1.42,2.3,2.69Z"/>
  <path class="cls-1" d="M911.69,57.01v28.08h-112.14c-2.66,2.66-5.2,5.2-7.8,7.8v37.38h88.7v28.21h-88.61v57.86h119.79v27.84c-2.99,.54-135.92,.77-147.26,.22V80.24c7.69-7.69,15.46-15.46,23.24-23.24,41.26,0,82.53,0,124.09,0Z"/>
  <path class="cls-1" d="M50.35,57.88V208.97c2.48,2.48,4.83,4.83,7.37,7.37h78.11c2.37-2.37,4.72-4.72,7.31-7.31V57.83h27.21V222.06c-7.38,7.38-14.9,14.89-22.46,22.45H45.77c-7.52-7.52-15.03-15.03-22.72-22.72V57.88h27.3Z"/>
  <path class="cls-1" d="M378.18,57.08h148.02v28.03h-59.85V216.24h59.53c.58,3.06,.73,18.57,.29,28.19h-147.94v-27.98h60.46V85.2h-60.5v-28.11Z"/>
  <path class="cls-1" d="M658.89,84.7V245.21h-27.18V97.62c-4.16-4.14-8.19-8.14-12.42-12.34h-63.15v-28.17h75.17c9.18,9.18,18.43,18.43,27.58,27.58Z"/>
  <path class="cls-1" d="M151.88,283.02v24.73c-2.48,2.29-4.76,4.38-7.19,6.63h-10.46c5.99,5.99,11.9,11.9,18.29,18.29h-13.72c-.06-.3,0-.76-.2-.96-5.76-5.74-11.55-11.46-17.55-17.4h-4.62v18.36h-9.54v-56.16h38.99c2,2.17,4.01,4.34,6.01,6.51Zm-8.81,20.45c0-5.44,0-10.87,0-16.31-.61-.61-1.22-1.22-1.73-1.73h-24.95c0,6.53,0,12.93,0,19.34,0,.11,.06,.22,.13,.31,.07,.1,.18,.16,.26,.23h24.45c.63-.62,1.24-1.23,1.85-1.84Z"/>
  <path class="cls-1" d="M366,332.67h-13.72c-.06-.31,0-.76-.2-.96-5.76-5.75-11.55-11.47-17.53-17.39h-4.65v18.36h-9.54v-56.17h38.99c.42,1.41,1.9,2,2.91,3.05,1.01,1.05,1.95,2.17,3.09,3.46v25.02c-1.37,.79-2.15,2.3-3.22,2.94-1.51,.91-2.4,2.35-4.08,3.39h-10.36c5.99,5.99,11.9,11.9,18.29,18.29Zm-9.45-29.19c0-5.44,0-10.87,0-16.31-.61-.61-1.22-1.22-1.74-1.73h-24.95c0,6.52,0,12.93,0,19.34,0,.11,.06,.22,.13,.31,.07,.1,.18,.16,.26,.23h24.45c.62-.62,1.23-1.23,1.84-1.84Z"/>
  <path class="cls-1" d="M907.38,332.63v-56.07h39.01c.88,.79,1.49,2.23,2.88,2.91,1.37,.67,1.47,2.65,3.19,3.24v25.1c-2.37,2.16-4.66,4.25-7.12,6.5h-10.87c6.22,6.22,12.15,12.15,18.32,18.32h-13.33c.06,.05-.08,0-.11-.11-.07-.22-.02-.53-.15-.67-5.77-5.89-11.56-11.77-17.31-17.61h-4.53c-.08,.07-.19,.14-.26,.23-.07,.09-.13,.21-.13,.31,0,5.91,0,11.81,0,17.85h-9.58Zm34.54-47.18h-24.89v19.77h24.8c.59-.56,1.21-1.15,1.8-1.71v-16.34c-.62-.63-1.23-1.24-1.71-1.72Z"/>
  <path class="cls-1" d="M1106.75,276.55c.43,1.64,1.99,2.15,2.97,3.23,.89,.99,1.76,2,2.86,3.26v10.32h-7.81c-.29-.29-.64-.64-1-1v-5.2c-.61-.59-1.23-1.19-1.9-1.83h-22.99c-.52,.57-1.11,1.2-1.78,1.93v9.61c.55,.48,1.19,1.05,1.99,1.74h26.26c2.45,2.45,4.8,4.8,7.29,7.29v20.53c-2.07,2.03-4.18,4.1-6.41,6.29h-31.59c-2.36-2.36-4.71-4.72-6.97-6.98,0-3.05-.02-6.1,.03-9.15,0-.27,.49-.52,.77-.81h7.57c.34,.34,.6,.6,1,1v5.19c.65,.65,1.18,1.18,1.8,1.8h23.23c.32-.52,.83-1.35,1.67-2.73v-11.66c-.38-.38-.73-.73-1.08-1.08h-27.46c-1.98-1.99-3.97-4.02-5.99-6.01-1.25-1.24-1.84-2.67-1.79-4.46,.08-3.33-.04-6.67,.06-10,.04-1.4-.23-2.78,.45-4.25,.54-1.18,1.96-1.35,2.24-2.73,.14-.71,1.05-1.58,1.77-1.78,1.35-.37,1.39-1.75,2.51-2.52h32.31Z"/>
  <path class="cls-1" d="M463.3,309.41c-.52-.52-.79-.79-1.08-1.08h-27.52c-2.62-2.73-5.3-5.53-7.72-8.05v-16.13c1.11-1.34,2.23-2.7,3.37-4.06,1.1-1.31,3-1.83,3.33-3.65h32.24c.99,.93,1.62,2.37,3.01,3.02,1.4,.66,1.35,2.78,3.18,3.11v10.76h-7.84c-.21-.21-.55-.56-.94-.96v-5.23c-.6-.52-1.26-1.07-2.09-1.79h-22.88c-.39,.54-.89,1.24-1.7,2.38v9.18c.49,.38,1.16,.91,2.15,1.67h25.88c2.51,2.51,4.85,4.85,7.44,7.44v20.18c-2.11,2.11-4.19,4.19-6.49,6.49h-31.35c-2.37-2.37-4.72-4.72-7.24-7.24v-8.72c.35-.35,.61-.61,.95-.95h7.57c.29,.29,.55,.55,.95,.95v5.11c.76,.8,1.35,1.42,1.91,2.01h23.02c.62-.62,1.23-1.23,1.85-1.84,0-4.2,0-8.4,0-12.6Z"/>
  <path class="cls-1" d="M845.8,326.46c-2.1,2.1-4.19,4.19-6.3,6.3h-31.86c-2.35-2.35-4.7-4.7-7.05-7.06v-8.88c.36-.36,.71-.71,1.08-1.08h7.51c.23,.29,.54,.67,.98,1.21v5.12c.61,.42,1.32,.92,2.48,1.73h22.56c.33-.45,.84-1.14,1.62-2.21v-12.26c-.29-.29-.55-.55-.94-.94h-27.43c-2.05-2.05-3.96-3.98-5.9-5.89-1.33-1.31-2.05-2.79-2.01-4.74,.1-3.95,.03-7.9,.03-11.86,0-1.53-.06-3.1,1.9-3.6,.69-2.73,3.96-3.2,4.81-5.78h32.44c.37,1.46,1.92,1.98,2.91,3.05,.99,1.07,1.95,2.17,3.05,3.4v10.41h-7.87c-1.8-1.84-.51-4.19-1-6.3-.48-.48-1.01-1.01-1.65-1.65h-23.23c-.5,.5-1.11,1.11-1.72,1.72,0,3.21,0,6.42,0,9.66,.61,.59,1.22,1.19,1.88,1.83h26.61c2.35,2.37,4.69,4.74,7.08,7.16,0,6.81,0,13.73,0,20.65Z"/>
  <path class="cls-1" d="M738.92,332.71h-8.66c-4.31-6.31-8.83-12.82-13.24-19.4-4.4-6.57-8.7-13.2-13.05-19.8-.16,.08-.26,.11-.33,.17-.08,.08-.17,.19-.17,.29,0,12.84,0,25.67,0,38.65h-9.26c-.55-2.91-.76-44.73-.24-56.07h9.45c8.69,12.91,17.53,26.03,26.69,39.65v-39.7h8.81v56.21Z"/>
  <path class="cls-1" d="M98.47,326.57c-1.97,1.97-4.07,4.06-6.19,6.18h-31.83c-2.31-2.35-4.65-4.72-7.08-7.18v-37.22c0-1.36-.06-2.72,.03-4.07,.03-.41,.41-.82,.72-1.17,1.1-1.26,2.04-2.78,3.4-3.65,1.23-.8,1.78-2.03,2.84-2.97h31.96c1.07,.67,1.51,2.2,2.88,2.99,1.2,.69,2,2.08,3.26,3.47v43.63Zm-33.74-2.83h23.24c.65-.65,1.17-1.17,1.64-1.64v-35.01c-.61-.61-1.13-1.13-1.71-1.71h-22.76c-.91,.74-1.58,1.28-2.11,1.72v34.88c.65,.68,1.24,1.3,1.7,1.77Z"/>
  <path class="cls-1" d="M1020.67,276.49h38.5v8.65h-33.54c-.56,.72-1.09,1.39-1.85,2.37v10.28h25.39c.46,.47,.8,.82,1.26,1.29-.43,2.7,.74,5.67-.8,8.46h-25.79v16.08c-.05-.06,.02,.05,.11,.12,.09,.06,.21,.13,.31,.13,11.59,0,23.17,0,34.89,0v8.54c-3.04,.53-33.27,.7-45.09,.23v-44.31c0-1.36-.06-2.72,.03-4.07,.03-.41,.41-.83,.72-1.17,1.1-1.26,2.11-2.66,3.4-3.68,1.09-.86,2.21-1.58,2.45-2.91Z"/>
  <path class="cls-1" d="M698.55,85.06c-9.13-9.13-18.38-18.38-27.62-27.63,.04-.07,.06-.18,.12-.24,.08-.08,.19-.17,.29-.17,20.72,0,41.44,0,62.34,0v28.05h-35.13Z"/>
  <path class="cls-1" d="M587.21,276.48h9.34c4.31,4.31,8.82,8.82,13.3,13.3,4.46-4.63,8.89-9.22,12.78-13.27h9.59v56.08h-8.85v-44.17c-2.46,2.48-4.39,4.58-6.44,6.56-2.26,2.19-4.27,4.64-6.77,6.9-1.33-1.14-2.36-2.3-3.34-3.7-.79-1.13-2.33-1.9-3.45-2.93-1.08-1-1.75-2.35-2.95-3.3-1.11-.88-2.02-2.02-2.96-2.99-.26,.1-.38,.12-.47,.18-.1,.07-.24,.17-.24,.26-.01,14.32-.01,28.64-.01,43.18-1.51,.34-3.09,.13-4.65,.16-1.59,.04-3.17,0-4.87,0v-56.28Z"/>
  <path class="cls-1" d="M266.99,276.5h8.39c1.23,.65,1.13,1.64,1.13,2.64-.01,6.79,0,13.59,0,20.38v1.96h26.67v-24.93h8.73v56.1h-8.64v-22.04h-26.72v22.08h-9.54v-56.19Z"/>
  <path class="cls-1" d="M220.49,276.46h31.93c1.07,.77,1.51,2.36,2.97,2.99,1.4,.6,1.46,2.65,3.21,3.1v12.99h-8.71v-8.34c-.66-.56-1.39-1.18-2.22-1.88h-22.81c-.35,.59-.85,1.44-1.72,2.93v33.77c.62,.63,1.23,1.24,1.84,1.85h22.99c.6-.61,1.2-1.22,1.95-1.98v-8.33h8.67v13.03l-6.17,6.17h-31.86c-2.33-2.35-4.68-4.72-7.06-7.12v-37.32c0-1.36-.06-2.72,.03-4.07,.03-.41,.41-.83,.72-1.17,1.11-1.26,2.06-2.8,3.43-3.64,1.28-.78,1.77-2.04,2.83-2.97Z"/>
  <path class="cls-1" d="M685.61,276.55v8.67h-17.55v38.58h17.47v8.88h-44.94v-7.85c.21-.21,.57-.56,1.06-1.04h17.25v-38.34h-18.2c-.43-1.51-.2-2.97-.24-4.39-.04-1.47,0-2.93,0-4.53h45.14Z"/>
  <path class="cls-1" d="M747.34,276.49h44.97v8.75h-17.58v38.58h17.62v8.81h-45.04c-.03-1.16-.08-2.47-.1-3.78-.02-1.34,0-2.68,0-3.87,.4-.4,.67-.67,1.06-1.06h17.33v-38.58h-18.25v-8.84Z"/>
  <path class="cls-1" d="M373.68,332.63v-7.64c.65-1.22,1.64-1.14,2.64-1.13,5.18,.02,10.35,0,15.68,0v-38.53h-18.26v-8.73h44.98v8.64h-17.59v38.58h17.62v8.8h-45.07Z"/>
  <path class="cls-1" d="M979.1,285.3h-18.29v-8.71h45.01v8.69h-17.62v38.45h17.62c.03,1.55,.07,2.98,.09,4.42,.02,1.46,0,2.93,0,4.5h-45.05v-7.84c.27-.27,.53-.53,.93-.93h17.31v-38.58Z"/>
  <path class="cls-1" d="M6.98,276.49H45.1v8.65H11.56c-.55,.72-1.08,1.4-1.85,2.4v10.25h25.4c.44,.47,.78,.82,1.13,1.19v7.55c-.35,.35-.61,.61-1,1H9.66v25.16H0v-44.36"/>
  <path class="cls-1" d="M631.68,17.49V0h27.17V44.66c-8.89-8.89-17.9-17.9-27.17-27.17Z"/>
  <path class="cls-1" d="M872.6,285.32h-18.53v-8.71h44.97v8.6h-17.55v47.47c-1.53,.03-2.96,.07-4.39,.09-1.46,.01-2.93,0-4.5,0v-47.44Z"/>
  <path class="cls-1" d="M480.41,285.45v-8.91h45.07c.03,1.29,.07,2.72,.08,4.15,.01,1.46,0,2.93,0,4.51h-17.67v47.43h-9.02v-47.19h-18.47Z"/>
</svg>