<?xml version="1.0" encoding="utf-8"?>
<!-- Generator: Adobe Illustrator 26.5.0, SVG Export Plug-In . SVG Version: 6.00 Build 0)  -->
<svg version="1.1" id="Layer_1" xmlns="http://www.w3.org/2000/svg" xmlns:xlink="http://www.w3.org/1999/xlink" x="0px" y="0px"
	 viewBox="0 0 222.4 256" style="enable-background:new 0 0 222.4 256;" xml:space="preserve">
<style type="text/css">
	.st0{fill:#FFFFFF;}
</style>
<g transform="translate(1.4065934065934016 1.4065934065934016) scale(2.81 2.81)">
	<path class="st0" d="M78.6,22.5c-5.1,0-9.9-1.7-13.7-4.6c-4.4-3.3-7.5-8.1-8.6-13.7c-0.3-1.4-0.4-2.8-0.4-4.3H41.1v40.2v22
		c0,5.9-3.8,10.9-9.1,12.6c-1.5,0.5-3.2,0.8-4.9,0.7c-2.2-0.1-4.3-0.8-6.1-1.9c-3.8-2.3-6.4-6.5-6.5-11.2
		c-0.1-7.4,5.9-13.5,13.3-13.5c1.5,0,2.9,0.2,4.2,0.7v-11v-3.9c-1.4-0.2-2.8-0.3-4.2-0.3c-8.1,0-15.7,3.4-21.2,9.5
		c-4.1,4.6-6.6,10.5-7,16.6c-0.5,8.1,2.5,15.8,8.2,21.4c0.8,0.8,1.7,1.6,2.7,2.3c4.9,3.8,10.9,5.8,17.3,5.8c1.4,0,2.8-0.1,4.2-0.3
		c5.9-0.9,11.4-3.6,15.7-7.8c5.3-5.2,8.2-12.2,8.3-19.6l-0.1-32.8c2.5,1.9,5.3,3.6,8.3,4.8c4.6,1.9,9.5,2.9,14.5,2.9V26.5L78.6,22.5
		L78.6,22.5L78.6,22.5z"/>
</g>
</svg>
